<svg width="320" height="200" viewBox="0 0 320 200" fill="none" xmlns="http://www.w3.org/2000/svg">
<path d="M0 16C0 7.16344 7.16344 0 16 0L304 0C312.837 0 320 7.16344 320 16V184C320 192.837 312.837 200 304 200H16C7.16345 200 0 192.837 0 184L0 16Z" fill="#FF4E3F"/>
<path d="M32 35.7324C34.0886 35.7324 35.7818 34.0434 35.7818 31.96C35.7818 29.8766 34.0886 28.1876 32 28.1876C29.9114 28.1876 28.2182 29.8766 28.2182 31.96C28.2182 34.0434 29.9114 35.7324 32 35.7324Z" fill="#F5F5F5"/>
<path d="M29.1879 16C25.6902 16 22.3358 17.386 19.8626 19.853C17.3894 22.32 16 25.666 16 29.1549V47.92H20.4606V22.7709C20.4606 22.1552 20.7058 21.5647 21.1422 21.1294C21.5787 20.694 22.1706 20.4495 22.7879 20.4495H48V16H29.1879Z" fill="#F5F5F5"/>
<path d="M233.72 42.3133C232.242 42.3332 230.774 42.0724 229.394 41.5446C228.141 41.062 226.999 40.3307 226.037 39.3946C225.093 38.4669 224.352 37.3536 223.861 36.1251C223.335 34.7971 223.073 33.3792 223.09 31.9509C223.09 29.9348 223.537 28.1506 224.431 26.5982C225.314 25.0551 226.612 23.7903 228.177 22.9473C229.779 22.0671 231.627 21.6263 233.72 21.6249C235.836 21.6249 237.621 22.0306 239.073 22.8419C240.438 23.5712 241.583 24.6516 242.391 25.9715C243.128 27.1736 243.577 28.5302 243.701 29.9348H238.892C238.718 28.7517 238.112 27.6752 237.191 26.9126C236.285 26.177 235.147 25.8092 233.777 25.8092C232.726 25.7848 231.69 26.0515 230.781 26.58C229.926 27.0929 229.234 27.8377 228.785 28.7279C228.29 29.7288 228.045 30.8347 228.071 31.9509C228.063 32.8075 228.2 33.6594 228.477 34.47C228.724 35.1904 229.116 35.852 229.631 36.4131C230.137 36.958 230.753 37.3894 231.438 37.6787C232.18 37.9843 232.975 38.1361 233.777 38.1249C235.147 38.1249 236.285 37.7511 237.191 37.0033C238.107 36.2357 238.712 35.1606 238.892 33.9791H243.701C243.574 35.3805 243.125 36.7338 242.391 37.9343C241.584 39.2614 240.439 40.35 239.073 41.0883C237.621 41.9063 235.836 42.3147 233.72 42.3133Z" fill="#F5F5F5"/>
<path d="M252.983 42.2951C251.71 42.3178 250.448 42.0645 249.283 41.5527C248.245 41.0974 247.358 40.3559 246.725 39.4149C246.105 38.4819 245.795 37.3501 245.795 36.0196C245.795 34.7905 246.086 33.754 246.669 32.9102C247.251 32.0665 248.114 31.4046 249.255 30.9246C250.395 30.4418 251.827 30.1565 253.553 30.0686C255.074 29.9794 256.379 29.8557 257.469 29.6975C258.559 29.5392 259.282 29.3716 259.638 29.1944V32.1983C259.293 32.3932 258.921 32.5341 258.534 32.6161C257.949 32.75 257.356 32.8482 256.759 32.9102C256.049 32.9941 255.219 33.086 254.269 33.1861C253.549 33.2312 252.841 33.3851 252.167 33.6425C251.707 33.8106 251.306 34.1121 251.017 34.5085C250.775 34.9053 250.656 35.3646 250.675 35.8289C250.654 36.3948 250.809 36.9533 251.119 37.4272C251.423 37.8634 251.854 38.1954 252.354 38.3785C252.95 38.5988 253.582 38.7054 254.218 38.6929C254.777 38.6958 255.334 38.6186 255.871 38.4637C256.39 38.3106 256.872 38.0555 257.291 37.7132C257.734 37.3488 258.09 36.891 258.335 36.3725C258.599 35.8725 258.782 35.3337 258.877 34.7763C258.99 34.1225 259.044 33.46 259.039 32.7967V29.3648C259.039 28.0735 258.713 27.0877 258.06 26.4076C257.406 25.7274 256.478 25.3894 255.275 25.3935C254.171 25.3935 253.284 25.6497 252.612 26.1622C251.945 26.6684 251.476 27.3904 251.283 28.2046H246.415C246.649 26.958 247.169 25.7829 247.936 24.7728C248.732 23.7511 249.775 22.949 250.967 22.4423C252.22 21.8852 253.691 21.6067 255.378 21.6067C257.216 21.6067 258.758 21.9204 260.005 22.5478C261.215 23.1442 262.201 24.1142 262.818 25.3143C263.452 26.5313 263.769 28.0147 263.769 29.7644V41.6866H260.207C260.17 41.2566 260.128 40.8638 260.084 40.5082C260.057 40.2314 259.996 39.9589 259.903 39.6969C259.814 39.3784 259.662 39.2202 259.447 39.2202C259.32 39.2157 259.195 39.2567 259.096 39.3358C258.965 39.4492 258.847 39.5764 258.743 39.7151C257.925 40.8515 256.734 41.6653 255.378 42.0152C254.596 42.2142 253.79 42.3083 252.983 42.2951Z" fill="#F5F5F5"/>
<path d="M275.553 42.3133C274.06 42.3452 272.576 42.0769 271.189 41.5243C270 41.0571 268.958 40.2804 268.17 39.2746C267.383 38.2689 266.879 37.0708 266.71 35.8046H271.578C271.667 36.3703 271.892 36.9058 272.235 37.3643C272.587 37.8201 273.057 38.1708 273.594 38.3785C274.237 38.627 274.922 38.7469 275.61 38.7314C276.661 38.7314 277.486 38.5286 278.081 38.1229C278.36 37.9461 278.589 37.7001 278.746 37.4087C278.903 37.1173 278.982 36.7905 278.975 36.4597C278.989 36.0388 278.873 35.6239 278.642 35.2712C278.337 34.8876 277.928 34.6003 277.464 34.4436C276.691 34.1614 275.891 33.9576 275.077 33.8351C273.263 33.5174 271.8 33.0921 270.686 32.5594C269.571 32.0266 268.76 31.3579 268.252 30.5534C267.727 29.686 267.464 28.6863 267.491 27.6732C267.491 25.7585 268.207 24.2711 269.639 23.211C271.071 22.1509 272.953 21.6222 275.286 21.6249C276.884 21.6249 278.253 21.8663 279.393 22.349C280.48 22.7874 281.422 23.5217 282.113 24.4686C282.815 25.4839 283.241 26.6645 283.348 27.8943H278.653C278.501 26.9573 278.156 26.2663 277.616 25.8214C277.077 25.3765 276.307 25.1548 275.306 25.1561C274.368 25.1561 273.624 25.3434 273.075 25.718C272.814 25.8821 272.601 26.1113 272.456 26.3831C272.311 26.6548 272.239 26.9596 272.247 27.2676C272.234 27.7014 272.361 28.128 272.608 28.4845C272.928 28.8654 273.351 29.1469 273.825 29.2959C274.589 29.5574 275.375 29.7481 276.174 29.8658C278.025 30.1579 279.502 30.5703 280.604 31.1031C281.706 31.6358 282.505 32.3045 283.001 33.109C283.509 33.9677 283.765 34.9515 283.742 35.9486C283.777 37.1621 283.419 38.3544 282.721 39.348C281.99 40.3358 280.994 41.0972 279.849 41.5446C278.482 42.0829 277.022 42.3442 275.553 42.3133Z" fill="#F5F5F5"/>
<path d="M293.218 42.2951C291.946 42.3176 290.685 42.0643 289.52 41.5527C288.482 41.098 287.594 40.3563 286.962 39.4149C286.339 38.4819 286.028 37.3501 286.029 36.0196C286.029 34.7905 286.321 33.754 286.904 32.9102C287.557 32.0132 288.456 31.3238 289.492 30.9246C290.632 30.4418 292.064 30.1565 293.788 30.0686C295.309 29.9794 296.615 29.8557 297.706 29.6975C298.797 29.5392 299.52 29.3716 299.872 29.1944V32.1983C299.528 32.3934 299.156 32.5343 298.769 32.6161C298.187 32.7498 297.597 32.848 297.002 32.9102C296.293 32.9941 295.462 33.086 294.51 33.1861C293.791 33.2308 293.083 33.3847 292.41 33.6425C291.949 33.8111 291.548 34.1124 291.258 34.5085C291.018 34.9059 290.9 35.365 290.918 35.8289C290.894 36.394 291.047 36.9524 291.354 37.4272C291.659 37.8634 292.091 38.1954 292.591 38.3785C293.186 38.5989 293.818 38.7056 294.453 38.6929C295.013 38.6926 295.571 38.612 296.108 38.4535C296.626 38.3005 297.109 38.0453 297.528 37.7031C297.972 37.3393 298.329 36.8814 298.574 36.3624C298.838 35.8624 299.021 35.3236 299.116 34.7661C299.229 34.1124 299.283 33.4499 299.278 32.7865V29.3648C299.278 28.0735 298.952 27.0877 298.298 26.4076C297.645 25.7274 296.716 25.3894 295.512 25.3935C294.411 25.3935 293.524 25.6497 292.851 26.1622C292.183 26.6685 291.713 27.3914 291.52 28.2067H286.652C286.886 26.96 287.406 25.785 288.173 24.7748C288.967 23.754 290.007 22.952 291.195 22.4443C292.593 21.8589 294.098 21.5735 295.613 21.6067C297.451 21.6067 298.991 21.9204 300.233 22.5478C301.445 23.1439 302.432 24.1139 303.049 25.3143C303.682 26.5313 303.999 28.0147 304 29.7644V41.6866H300.444C300.406 41.2566 300.363 40.8631 300.321 40.5082C300.293 40.2315 300.232 39.9592 300.14 39.6969C300.051 39.3784 299.899 39.2202 299.682 39.2202C299.555 39.2164 299.431 39.2574 299.331 39.3358C299.2 39.4488 299.082 39.576 298.98 39.7151C298.16 40.851 296.969 41.6646 295.613 42.0152C294.831 42.2143 294.025 42.3084 293.218 42.2951Z" fill="#F5F5F5"/>
<g opacity="0.9">
<path d="M19.0538 90.413C20.301 89.9104 21.6377 89.6667 22.9822 89.6968C32.5403 89.6968 42.1104 89.6968 51.6924 89.6968C53.1468 89.5903 54.5981 89.9408 55.8431 90.6995C56.6259 91.1758 57.276 91.8415 57.7333 92.6351C58.1906 93.4287 58.4404 94.3247 58.4596 95.2402C58.5026 102.402 58.5241 109.564 58.4596 116.726C58.47 117.642 58.2246 118.543 57.7511 119.327C57.2775 120.112 56.5944 120.749 55.7785 121.167L55.671 121.059L55.757 120.451L56.1226 120.1L56.4739 119.749C56.8353 119.496 57.0906 119.118 57.1908 118.689C57.5836 118.174 57.7975 117.545 57.8001 116.898C57.8001 109.6 57.8001 102.302 57.8001 95.0039C57.8353 94.3597 57.6894 93.7186 57.3791 93.1528C57.0687 92.5871 56.6062 92.1194 56.0438 91.8024C55.0473 90.4631 53.585 90.37 52.1154 90.37C44.4737 90.37 36.8319 90.3199 29.1759 90.37C25.7349 90.37 22.2438 89.8186 18.8818 91.0433C18.7886 91.0433 18.6595 90.986 18.5448 90.9573C18.5717 90.886 18.5886 90.8113 18.595 90.7353H18.638C18.7342 90.7391 18.8287 90.7089 18.9048 90.6499C18.9808 90.591 19.0336 90.5071 19.0538 90.413Z" fill="#EAE8E8"/>
<path d="M16.0215 99.9672L16.086 95.8275C16.052 95.1395 16.1577 94.4516 16.3967 93.8054C16.6357 93.1592 17.0031 92.5681 17.4767 92.0674L17.5628 92.1534C17.319 93.7577 16.4946 95.2044 16.509 96.9018C16.5663 102.932 16.509 108.977 16.509 115.015C16.4429 116.306 16.757 117.588 17.4122 118.703L17.8065 119.419L18.1434 119.785L18.8603 120.486C20.074 121.414 21.5779 121.881 23.1041 121.804C33.3695 121.804 43.6302 121.804 53.886 121.804L54.0724 122.019C53.6394 122.206 53.1645 122.275 52.6961 122.22C42.4665 122.22 32.2369 122.27 22.0001 122.22C18.6094 122.22 16.2007 119.699 16.0645 116.289C16.0215 115.294 16.0143 114.291 16 113.296C16.1074 112.868 16.1074 112.42 16 111.992V110.825C16.1386 107.177 16.1458 103.558 16.0215 99.9672Z" fill="#EAE8E8"/>
<path d="M55.1262 121.568C54.8215 121.784 54.4657 121.917 54.0937 121.955L53.9073 121.74C54.1511 121.289 54.5741 121.389 54.9685 121.382C55.0171 121.447 55.0698 121.509 55.1262 121.568Z" fill="#EAE8E8"/>
<path d="M55.8 121.152C55.5778 121.296 55.3555 121.432 55.1332 121.568C55.0768 121.509 55.0241 121.447 54.9755 121.382C55.1117 121.059 55.3842 121.016 55.6925 121.045L55.8 121.152Z" fill="#EAE8E8"/>
<path d="M17.9068 91.3226C17.985 91.3085 18.0652 91.3085 18.1434 91.3226C18.2079 91.5375 18.1434 91.6879 17.9211 91.7523L17.7992 91.6234C17.8295 91.5212 17.8654 91.4208 17.9068 91.3226Z" fill="#EAE8E8"/>
<path d="M17.4766 92.0388C17.4896 91.9501 17.5264 91.8666 17.5833 91.7972C17.6401 91.7278 17.7148 91.6751 17.7993 91.6449L17.9212 91.7738C17.9175 91.8669 17.8784 91.9552 17.8117 92.0204C17.7451 92.0857 17.656 92.123 17.5627 92.1247L17.4766 92.0388Z" fill="#EAE8E8"/>
<path d="M17.5627 92.1247C17.656 92.123 17.7451 92.0857 17.8117 92.0204C17.8784 91.9552 17.9175 91.8669 17.9212 91.7738C18.1577 91.7093 18.2079 91.5589 18.1434 91.3441H18.1864C18.4588 91.3441 18.5878 91.208 18.5735 90.943C18.6882 90.943 18.8172 91.0648 18.9104 91.029C22.2725 89.8042 25.7636 90.3915 29.2045 90.3557C36.8463 90.2841 44.488 90.3557 52.1441 90.3557C53.5778 90.3557 55.076 90.4488 56.0725 91.7881C55.0043 92.0388 54.2803 91.0361 53.205 91.0719C51.334 91.1435 49.4487 91.1077 47.5705 91.0719C47.2488 91.0377 46.925 91.1132 46.6517 91.2862C46.3784 91.4591 46.1716 91.7193 46.0651 92.0245C44.9396 94.4309 44.4306 96.8517 45.3482 99.4658C45.6421 100.254 45.9791 100.626 46.8321 100.612C49.886 100.583 52.9374 100.583 55.9864 100.612C56.7821 100.612 57.2911 100.325 57.3198 99.5661C57.4201 98.1665 57.4201 96.7616 57.3198 95.362C57.1693 94.0442 56.0366 93.1346 56.0581 91.781C56.6205 92.0979 57.083 92.5656 57.3934 93.1314C57.7038 93.6971 57.8496 94.3382 57.8144 94.9824C57.8574 102.281 57.8144 109.579 57.8144 116.877C57.8119 117.524 57.5979 118.153 57.2051 118.667L56.8897 118.402C57.3197 116.525 57.4862 114.596 57.3843 112.673C57.3843 111.684 57.1262 111.147 56.0008 111.169C52.9541 111.212 49.9075 111.169 46.868 111.169C46.5775 111.128 46.2823 111.195 46.0371 111.355C45.7919 111.516 45.6134 111.76 45.5346 112.042C45.0379 113.35 44.8269 114.749 44.916 116.145C45.005 117.541 45.3919 118.901 46.0507 120.135C46.316 120.637 46.6242 121.009 47.2479 120.988C50.0222 120.873 52.8753 121.446 55.5348 120.15L55.757 120.422L55.671 121.031C55.3628 121.031 55.0904 121.031 54.9542 121.367C54.5599 121.367 54.1369 121.274 53.8932 121.725C43.6325 121.725 33.3719 121.725 23.1112 121.725C21.5851 121.802 20.0812 121.335 18.8674 120.408L19.0896 120.135C20.2327 120.605 21.4419 120.895 22.6739 120.995C29.6633 120.952 36.6527 120.995 43.6421 120.995C44.0722 120.995 44.574 121.181 44.9611 120.716C44.9366 120.55 44.8982 120.387 44.8464 120.229C43.7998 117.872 43.3195 115.43 44.065 112.902C44.5258 111.382 44.5083 109.757 44.0149 108.246C43.5205 106.548 43.5555 104.739 44.1152 103.061C44.5166 101.83 44.5166 100.504 44.1152 99.2725C43.4481 97.0035 43.6212 94.5703 44.6027 92.4184C44.7461 92.0531 45.0687 91.7022 44.8966 91.1794L29.6992 91.1794C29.7086 91.3897 29.7398 91.5985 29.7924 91.8025C30.9322 94.3951 31.4698 97.0021 30.416 99.7953C30.1198 100.757 30.1198 101.785 30.416 102.746C30.968 104.981 31.1974 107.215 30.3085 109.45C29.6705 111.076 29.5916 111.19 27.9429 111.19C24.889 111.19 21.8352 111.233 18.7814 111.19C17.6129 111.19 17.2617 111.606 17.233 112.73C17.1673 114.652 17.3285 116.575 17.7133 118.46L17.4194 118.674C16.7641 117.559 16.4501 116.277 16.5161 114.986C16.5161 108.948 16.5161 102.904 16.5161 96.8732C16.4946 95.1758 17.3189 93.729 17.5627 92.1247ZM45.807 101.65C45.0471 103.999 44.5884 106.356 45.3124 108.812C45.3387 109.012 45.4045 109.204 45.5061 109.377C45.6076 109.551 45.7427 109.702 45.9036 109.823C46.0645 109.944 46.2479 110.031 46.443 110.08C46.6382 110.129 46.8411 110.139 47.04 110.109C50.0293 110.058 53.0258 110.109 56.0151 110.109C56.3592 110.109 56.732 110.152 56.9972 109.822L56.9972 101.643H45.807C45.7138 101.414 45.764 101.056 45.3554 101.099C45.3124 101.099 45.2479 101.17 45.2407 101.213C45.2049 101.629 45.5633 101.564 45.807 101.65ZM27.3981 100.583C27.6944 100.583 27.9883 100.583 28.2798 100.583C28.9393 100.583 29.14 100.089 29.2691 99.5446C29.9444 97.0406 29.7186 94.3792 28.6311 92.0245C28.4982 91.6997 28.2598 91.4291 27.9541 91.2562C27.6485 91.0834 27.2935 91.0185 26.9464 91.0719C25.2475 91.1149 23.5485 91.0719 21.8424 91.0719C19.6416 91.1149 18.1075 92.576 17.5412 94.7317C17.0323 96.6726 17.8136 98.5348 17.5556 100.583L27.3981 100.583ZM17.7635 110.101C21.2331 110.101 24.6238 110.101 28.0074 110.101C28.3003 110.132 28.5936 110.047 28.8251 109.866C29.0566 109.684 29.2081 109.419 29.2476 109.127C29.8231 106.975 29.7834 104.705 29.1329 102.574C28.8748 101.715 28.2368 101.643 27.4769 101.65C24.6095 101.65 21.742 101.65 18.8746 101.65C18.4731 101.65 18.043 101.564 17.6774 101.944C17.2761 104.65 17.3028 107.403 17.7563 110.101H17.7635Z" fill="#BEC1C5"/>
<path d="M57.2266 118.674C57.1264 119.104 56.8711 119.481 56.5096 119.734L56.2371 119.505C56.2741 119.283 56.3569 119.071 56.4803 118.882C56.6038 118.693 56.7651 118.532 56.9541 118.409L57.2266 118.674Z" fill="#BEC1C5"/>
<path d="M56.1441 120.085L55.7785 120.436L55.5562 120.164L55.9219 119.863C55.9936 119.935 56.0653 120.021 56.1441 120.085Z" fill="#BEC1C5"/>
<path d="M56.4954 119.734L56.1441 120.085C56.0653 120.014 55.9936 119.935 55.9219 119.863L56.2229 119.505L56.4954 119.734Z" fill="#BEC1C5"/>
<path d="M17.8494 119.369L17.4551 118.653L17.7491 118.438L18.1076 119.154C18.017 119.22 17.9308 119.292 17.8494 119.369Z" fill="#BEC1C5"/>
<path d="M18.5305 120.085L18.1719 119.734L18.4014 119.505L18.7456 119.863L18.5305 120.085Z" fill="#BEC1C5"/>
<path d="M18.1719 119.734L17.835 119.369C17.9161 119.29 18.0024 119.215 18.0931 119.147L18.4014 119.505L18.1719 119.734Z" fill="#BEC1C5"/>
<path d="M18.8889 120.436L18.5305 120.085L18.7456 119.863L19.1112 120.164L18.8889 120.436Z" fill="#BEC1C5"/>
<path d="M18.5663 90.9717C18.5663 91.2366 18.4516 91.3727 18.1791 91.3727C18.1935 91.1149 18.3584 91.0218 18.5663 90.9717Z" fill="#EAE8E8"/>
<path d="M19.1112 120.164L18.7456 119.863L18.4014 119.505L18.0931 119.147L17.7348 118.431C17.3501 116.547 17.1889 114.623 17.2545 112.701C17.2545 111.577 17.6345 111.14 18.8029 111.161C21.8568 111.219 24.9106 111.161 27.9644 111.161C29.649 111.161 29.692 111.047 30.33 109.421C31.2189 107.187 30.9895 104.952 30.4376 102.717C30.1413 101.756 30.1413 100.728 30.4376 99.7667C31.4914 96.9735 30.9537 94.3665 29.8139 91.7738C29.7614 91.5699 29.7301 91.3611 29.7207 91.1507L44.8895 91.1507C45.0615 91.7022 44.7389 92.0245 44.5955 92.3898C43.614 94.5417 43.441 96.9748 44.1081 99.2438C44.5095 100.475 44.5095 101.801 44.1081 103.033C43.5483 104.711 43.5133 106.519 44.0077 108.218C44.5012 109.728 44.5187 111.353 44.0579 112.873C43.341 115.401 43.7927 117.844 44.8393 120.2C44.891 120.359 44.9294 120.522 44.954 120.687C44.5669 121.153 44.0651 120.966 43.635 120.966C36.6456 120.966 29.6562 120.966 22.6668 120.966C21.4475 120.882 20.2484 120.612 19.1112 120.164ZM42.4593 94.1301C40.574 93.2564 33.0183 93.4139 32.0935 94.1301H42.4593ZM42.3589 118.152L42.3159 117.922H32.2799V118.152H42.3589Z" fill="#EAE8E8"/>
<path d="M56.2229 119.505L55.9219 119.863L55.5562 120.164C52.8966 121.46 50.0437 120.88 47.2694 121.002C46.6457 121.002 46.3375 120.651 46.0723 120.15C45.4134 118.916 45.0265 117.555 44.9375 116.159C44.8484 114.763 45.0594 113.364 45.5561 112.057C45.6349 111.774 45.8134 111.53 46.0586 111.37C46.3038 111.209 46.599 111.143 46.8895 111.183C49.929 111.183 52.9756 111.226 56.0223 111.183C57.1477 111.183 57.3771 111.699 57.4058 112.687C57.5077 114.61 57.3412 116.539 56.9112 118.417C56.7283 118.542 56.573 118.703 56.4546 118.89C56.3363 119.077 56.2574 119.287 56.2229 119.505Z" fill="#EAE8E8"/>
<path d="M56.051 91.7881C56.051 93.1203 57.1621 94.0299 57.3126 95.3692C57.4129 96.7687 57.4129 98.1737 57.3126 99.5733C57.3126 100.332 56.775 100.626 55.9793 100.619C52.9302 100.586 49.8788 100.586 46.825 100.619C45.9719 100.619 45.635 100.261 45.3411 99.473C44.3948 96.8589 44.9038 94.4596 46.0579 92.0316C46.1645 91.7265 46.3712 91.4663 46.6445 91.2933C46.9178 91.1204 47.2416 91.0449 47.5633 91.0791C49.4415 91.1221 51.3268 91.1579 53.1979 91.0791C54.2516 91.0361 54.9757 92.0388 56.0653 91.7953L56.051 91.7881Z" fill="#EAE8E8"/>
<path d="M17.5556 100.583C17.8136 98.499 17.0323 96.6726 17.5556 94.7317C18.1219 92.5831 19.656 91.1149 21.8567 91.0719C23.5629 91.0719 25.2618 91.0719 26.9608 91.0719C27.2986 91.027 27.6418 91.0937 27.9382 91.2618C28.2346 91.4299 28.4678 91.6902 28.6024 92.003C29.69 94.3577 29.9158 97.0191 29.2404 99.5231C29.1114 100.067 28.9106 100.533 28.2511 100.562C27.9596 100.562 27.6657 100.562 27.3694 100.562L17.5556 100.583Z" fill="#EAE8E8"/>
<path d="M17.7563 110.101C17.3003 107.411 17.2688 104.666 17.6631 101.965C18.0287 101.586 18.4588 101.672 18.8603 101.672C21.7277 101.672 24.5951 101.672 27.4626 101.672C28.2224 101.672 28.8963 101.736 29.1185 102.596C29.769 104.726 29.8088 106.997 29.2332 109.149C29.1938 109.44 29.0423 109.705 28.8108 109.887C28.5792 110.069 28.2859 110.154 27.9931 110.123C24.6166 110.101 21.2259 110.101 17.7563 110.101Z" fill="#EAE8E8"/>
<path d="M45.807 101.643L56.99 101.643V109.815C56.7176 110.144 56.352 110.101 56.0079 110.101C53.0186 110.101 50.0221 110.101 47.0328 110.101C46.8339 110.132 46.631 110.122 46.4358 110.073C46.2407 110.024 46.0573 109.937 45.8964 109.816C45.7356 109.695 45.6004 109.544 45.4989 109.37C45.3974 109.196 45.3315 109.004 45.3052 108.805C44.5884 106.334 45.04 103.978 45.7998 101.643L45.807 101.643Z" fill="#EAE8E8"/>
<path d="M45.807 101.65C45.5704 101.564 45.2119 101.65 45.2477 101.213C45.2477 101.17 45.3194 101.099 45.3625 101.099C45.7712 101.056 45.721 101.414 45.8142 101.643L45.807 101.65Z" fill="#EAE8E8"/>
<path d="M32.0935 94.1301H42.4593C40.574 93.2564 33.0183 93.4139 32.0935 94.1301Z" fill="#BEC1C5"/>
<path d="M42.3589 118.152L32.2727 118.152V117.922L42.3087 117.922L42.3589 118.152Z" fill="#BEC1C5"/>
</g>
</svg>
