<svg xmlns="http://www.w3.org/2000/svg" viewBox="0 0 509.3 121"><defs><style>.cls-1{fill:#102331;}.cls-2{fill:#ff4e3f;}</style></defs><g id="Layer_2" data-name="Layer 2"><g id="Layer_1-2" data-name="Layer 1"><path class="cls-1" d="M162.8,111.66a57.55,57.55,0,0,1-21.32-3.8,49.05,49.05,0,0,1-16.55-10.59,47.37,47.37,0,0,1-10.74-16.13,54.13,54.13,0,0,1-3.79-20.58q0-14.91,6.61-26.39a47,47,0,0,1,18.47-18q11.85-6.51,27.32-6.51,15.66,0,26.39,6a42.85,42.85,0,0,1,16.36,15.42A45.09,45.09,0,0,1,212,50.62H188.3a23.77,23.77,0,0,0-8.39-14.9q-6.71-5.44-16.83-5.44a28.15,28.15,0,0,0-14.76,3.8,26,26,0,0,0-9.84,10.59A34.06,34.06,0,0,0,135,60.56a37.16,37.16,0,0,0,2,12.42,27.1,27.1,0,0,0,5.72,9.61,26,26,0,0,0,8.9,6.24A29,29,0,0,0,163.08,91q10.13,0,16.83-5.53a24.14,24.14,0,0,0,8.39-14.91H212a45.27,45.27,0,0,1-6.47,19.5,43,43,0,0,1-16.36,15.52Q178.46,111.66,162.8,111.66Z"/><path class="cls-1" d="M257.77,111.56a43.57,43.57,0,0,1-18.23-3.65,29.47,29.47,0,0,1-12.61-10.55q-4.59-6.89-4.6-16.74,0-9.09,4.32-15.32t12.75-9.8q8.43-3.57,21.18-4.22,11.25-.66,19.32-1.83T290.58,47V61.78a19,19,0,0,1-5.43,2.06,73.27,73.27,0,0,1-8.72,1.46q-5.25.6-12.28,1.36a34.48,34.48,0,0,0-10.36,2.25,12.1,12.1,0,0,0-5.67,4.26,11.64,11.64,0,0,0-1.69,6.52,13.6,13.6,0,0,0,2.15,7.83,12.87,12.87,0,0,0,6.1,4.68,25.06,25.06,0,0,0,9.19,1.55A28.51,28.51,0,0,0,272,92.62a19.82,19.82,0,0,0,7-3.7,19.08,19.08,0,0,0,5.16-6.61,26.17,26.17,0,0,0,2.67-7.87,55.11,55.11,0,0,0,.8-9.75V47.81q0-9.56-4.83-14.58t-13.73-5Q261,28.22,256,32a17.8,17.8,0,0,0-6.56,10.07h-24a40.22,40.22,0,0,1,7.5-16.92,37.59,37.59,0,0,1,14.9-11.48q9.28-4.12,21.75-4.13,13.6,0,22.79,4.64a31,31,0,0,1,13.87,13.64q4.69,9,4.69,21.94v58.78H293.4q-.28-3.18-.61-5.81a17.41,17.41,0,0,0-.89-4q-.66-2.34-2.25-2.34a2.67,2.67,0,0,0-1.74.56,11.9,11.9,0,0,0-1.73,1.87,30.46,30.46,0,0,1-7.31,7.13,30.86,30.86,0,0,1-9.29,4.22A45.28,45.28,0,0,1,257.77,111.56Z"/><path class="cls-1" d="M369.05,111.66a55.13,55.13,0,0,1-21.51-3.89,35.33,35.33,0,0,1-22.08-28.18h24a17.41,17.41,0,0,0,3.23,7.69,15.68,15.68,0,0,0,6.71,5A26.12,26.12,0,0,0,369.33,94q7.79,0,12.19-3a9.48,9.48,0,0,0,4.41-8.2,10.16,10.16,0,0,0-1.64-5.86,12.61,12.61,0,0,0-5.81-4.08,61.07,61.07,0,0,0-11.77-3q-13.41-2.34-21.66-6.28t-12-9.89a26.09,26.09,0,0,1-3.75-14.2q0-14.16,10.6-22t27.84-7.82q11.82,0,20.25,3.56A31,31,0,0,1,401.4,23.67a35.14,35.14,0,0,1,6.09,16.92H384.33q-1.12-6.93-5.1-10.21t-11.4-3.29q-6.93,0-11,2.77a8.74,8.74,0,0,0-4.08,7.64,9.86,9.86,0,0,0,1.78,6,12.75,12.75,0,0,0,6.05,4,64.55,64.55,0,0,0,11.58,2.81q13.68,2.16,21.84,6.1t11.81,9.89a26.22,26.22,0,0,1,3.66,14A27.84,27.84,0,0,1,404.4,97a32.27,32.27,0,0,1-14.16,10.83A54.68,54.68,0,0,1,369.05,111.66Z"/><path class="cls-1" d="M456.15,111.56a43.62,43.62,0,0,1-18.24-3.65A29.59,29.59,0,0,1,425.3,97.36q-4.59-6.89-4.59-16.74,0-9.09,4.31-15.32t12.75-9.8q8.44-3.57,21.19-4.22,11.25-.66,19.31-1.83T489,47V61.78a19.07,19.07,0,0,1-5.44,2.06,72.91,72.91,0,0,1-8.72,1.46q-5.25.6-12.28,1.36a34.55,34.55,0,0,0-10.36,2.25,12.2,12.2,0,0,0-5.67,4.26,11.72,11.72,0,0,0-1.69,6.52A13.52,13.52,0,0,0,447,87.52a12.89,12.89,0,0,0,6.09,4.68,25.09,25.09,0,0,0,9.19,1.55,28.58,28.58,0,0,0,8.16-1.13,19.91,19.91,0,0,0,7-3.7,19.17,19.17,0,0,0,5.15-6.61,26.18,26.18,0,0,0,2.68-7.87,55.15,55.15,0,0,0,.79-9.75V47.81q0-9.56-4.82-14.58t-13.74-5q-8.16,0-13.12,3.8a17.82,17.82,0,0,0-6.57,10.07h-24a40.22,40.22,0,0,1,7.5-16.92,37.55,37.55,0,0,1,14.91-11.48Q455.5,9.57,468,9.56q13.59,0,22.78,4.64a31,31,0,0,1,13.88,13.64q4.68,9,4.68,21.94v58.78H491.77q-.28-3.18-.61-5.81a16.9,16.9,0,0,0-.89-4q-.66-2.34-2.25-2.34a2.64,2.64,0,0,0-1.73.56,11.87,11.87,0,0,0-1.74,1.87,30.28,30.28,0,0,1-7.31,7.13,30.8,30.8,0,0,1-9.28,4.22A45.39,45.39,0,0,1,456.15,111.56Z"/><circle class="cls-2" cx="60.5" cy="60.5" r="14.3"/><path class="cls-2" d="M49.87,0A49.87,49.87,0,0,0,0,49.87V121H16.87V25.67a8.8,8.8,0,0,1,8.8-8.8H121V0Z"/></g></g></svg>