<svg xmlns="http://www.w3.org/2000/svg" viewBox="0 0 398.91 102.09"><defs><style>.cls-1{fill:#102331;}</style></defs><g id="Layer_2" data-name="Layer 2"><g id="Layer_1-2" data-name="Layer 1"><path class="cls-1" d="M52.41,102.09A57.56,57.56,0,0,1,31.08,98.3,49,49,0,0,1,14.53,87.7,47.2,47.2,0,0,1,3.8,71.58,54.13,54.13,0,0,1,0,51Q0,36.09,6.61,24.61a46.9,46.9,0,0,1,18.47-18Q36.93.1,52.41.09q15.65,0,26.39,6A42.87,42.87,0,0,1,95.16,21.52a45,45,0,0,1,6.46,19.54H77.91a23.86,23.86,0,0,0-8.39-14.9q-6.7-5.44-16.83-5.44a28.07,28.07,0,0,0-14.77,3.8,26,26,0,0,0-9.84,10.59A34.06,34.06,0,0,0,24.56,51a37.2,37.2,0,0,0,2,12.42A27.19,27.19,0,0,0,32.25,73a25.92,25.92,0,0,0,8.91,6.24,29.19,29.19,0,0,0,11.53,2.2q10.13,0,16.83-5.53A24.23,24.23,0,0,0,77.91,61h23.71a45.25,45.25,0,0,1-6.46,19.5A43.15,43.15,0,0,1,78.8,96.05Q68.06,102.1,52.41,102.09Z"/><path class="cls-1" d="M147.38,102a43.43,43.43,0,0,1-18.24-3.66A29.44,29.44,0,0,1,116.53,87.8q-4.59-6.9-4.59-16.74,0-9.09,4.31-15.33T129,45.94q8.43-3.57,21.19-4.22,11.25-.66,19.31-1.83t10.69-2.48V52.22a19.07,19.07,0,0,1-5.44,2.06A73.15,73.15,0,0,1,166,55.73q-5.25.62-12.28,1.36a35.18,35.18,0,0,0-10.36,2.25,12.18,12.18,0,0,0-5.67,4.27A11.62,11.62,0,0,0,136,70.12,13.48,13.48,0,0,0,138.19,78a12.8,12.8,0,0,0,6.09,4.69,25.09,25.09,0,0,0,9.19,1.55,28.87,28.87,0,0,0,8.15-1.13,20,20,0,0,0,7-3.7,19.17,19.17,0,0,0,5.15-6.61,26.27,26.27,0,0,0,2.67-7.87,55.14,55.14,0,0,0,.8-9.76V38.25q0-9.55-4.83-14.58t-13.73-5q-8.16,0-13.13,3.79A17.79,17.79,0,0,0,139,32.53H115a40.22,40.22,0,0,1,7.5-16.92A37.57,37.57,0,0,1,137.44,4.12Q146.71,0,159.19,0,172.78,0,182,4.64a31,31,0,0,1,13.87,13.64q4.69,9,4.69,21.94V99H183q-.28-3.18-.61-5.81a16.78,16.78,0,0,0-.89-4c-.44-1.57-1.19-2.35-2.25-2.35a2.63,2.63,0,0,0-1.73.57,11.87,11.87,0,0,0-1.74,1.87,29.54,29.54,0,0,1-16.59,11.34A44.94,44.94,0,0,1,147.38,102Z"/><path class="cls-1" d="M258.66,102.09a55,55,0,0,1-21.52-3.89A35.3,35.3,0,0,1,215.06,70h24a17.31,17.31,0,0,0,3.24,7.69,15.55,15.55,0,0,0,6.7,5,25.94,25.94,0,0,0,9.94,1.74c5.18,0,9.25-1,12.18-3a9.48,9.48,0,0,0,4.41-8.2,10.13,10.13,0,0,0-1.64-5.86,12.55,12.55,0,0,0-5.81-4.08,60.67,60.67,0,0,0-11.77-3Q242.9,57.94,234.66,54t-12-9.89a26.09,26.09,0,0,1-3.75-14.2q0-14.16,10.59-22T257.34.09q11.82,0,20.25,3.57A30.91,30.91,0,0,1,291,14.11,35.06,35.06,0,0,1,297.09,31H273.94q-1.12-6.93-5.11-10.22t-11.39-3.28q-6.94,0-11,2.77a8.74,8.74,0,0,0-4.08,7.64,10,10,0,0,0,1.78,6,12.87,12.87,0,0,0,6,4,65,65,0,0,0,11.58,2.81q13.69,2.16,21.84,6.1t11.82,9.89a26.3,26.3,0,0,1,3.65,14A27.77,27.77,0,0,1,294,87.47,32.21,32.21,0,0,1,279.84,98.3,54.67,54.67,0,0,1,258.66,102.09Z"/><path class="cls-1" d="M345.75,102a43.41,43.41,0,0,1-18.23-3.66A29.38,29.38,0,0,1,314.91,87.8q-4.61-6.9-4.6-16.74,0-9.09,4.31-15.33a28.45,28.45,0,0,1,12.76-9.79q8.43-3.57,21.18-4.22,11.25-.66,19.32-1.83t10.68-2.48V52.22a19,19,0,0,1-5.44,2.06,72.94,72.94,0,0,1-8.71,1.45q-5.25.62-12.29,1.36a35,35,0,0,0-10.35,2.25,12.26,12.26,0,0,0-5.68,4.27,11.71,11.71,0,0,0-1.68,6.51A13.48,13.48,0,0,0,336.56,78a12.83,12.83,0,0,0,6.1,4.69,25,25,0,0,0,9.18,1.55A28.89,28.89,0,0,0,360,83.06a20,20,0,0,0,7-3.7,19.08,19.08,0,0,0,5.16-6.61,26.27,26.27,0,0,0,2.67-7.87,55.14,55.14,0,0,0,.8-9.76V38.25q0-9.55-4.83-14.58t-13.74-5q-8.14,0-13.12,3.79a17.79,17.79,0,0,0-6.56,10.08h-24a40.22,40.22,0,0,1,7.5-16.92,37.54,37.54,0,0,1,14.9-11.49A53.35,53.35,0,0,1,357.56,0q13.59,0,22.78,4.64a31,31,0,0,1,13.88,13.64q4.68,9,4.69,21.94V99H381.38c-.19-2.12-.4-4.06-.61-5.81a17.28,17.28,0,0,0-.89-4c-.44-1.57-1.19-2.35-2.26-2.35a2.67,2.67,0,0,0-1.73.57,11.44,11.44,0,0,0-1.73,1.87,29.61,29.61,0,0,1-16.6,11.34A44.89,44.89,0,0,1,345.75,102Z"/></g></g></svg>